{
	"asset":{
		"generator":"Khronos glTF Blender I/O v3.5.30",
		"version":"2.0"
	},
	"extensionsUsed":[
		"KHR_materials_specular",
		"KHR_materials_ior"
	],
	"scene":0,
	"scenes":[
		{
			"name":"Scene",
			"nodes":[
				0,
				1
			]
		}
	],
	"nodes":[
		{
			"mesh":0,
			"name":"Plane",
			"rotation":[
				0.9632484912872314,
				0,
				0,
				0.26861196756362915
			],
			"scale":[
				-0.1419634222984314,
				-0.14125053584575653,
				-0.14125053584575653
			],
			"translation":[
				0.0005992307560518384,
				0.23400704562664032,
				0.3923223912715912
			]
		},
		{
			"mesh":1,
			"name":"Cylinder",
			"rotation":[
				-0.0010628321906551719,
				-0.0010628321906551719,
				-0.7071059942245483,
				0.7071059942245483
			],
			"scale":[
				0.772027850151062,
				0.10154886543750763,
				0.7833658456802368
			],
			"translation":[
				0.0019106863765046,
				0.025984391570091248,
				0.039801448583602905
			]
		}
	],
	"materials":[
		{
			"doubleSided":true,
			"extensions":{
				"KHR_materials_specular":{
					"specularColorFactor":[
						0.3807225210073231,
						0.3807225210073231,
						0.3807225210073231
					]
				},
				"KHR_materials_ior":{
					"ior":1.4500000476837158
				}
			},
			"name":"Material.001",
			"pbrMetallicRoughness":{
				"baseColorFactor":[
					0.800000011920929,
					0.800000011920929,
					0.800000011920929,
					1
				],
				"metallicFactor":0.5045871734619141,
				"roughnessFactor":0.4816513657569885
			}
		}
	],
	"meshes":[
		{
			"name":"Plane.001",
			"primitives":[
				{
					"attributes":{
						"POSITION":0,
						"TEXCOORD_0":1,
						"NORMAL":2
					},
					"indices":3,
					"material":0
				}
			]
		},
		{
			"name":"Cylinder.003",
			"primitives":[
				{
					"attributes":{
						"POSITION":4,
						"TEXCOORD_0":5,
						"NORMAL":6
					},
					"indices":7,
					"material":0
				}
			]
		}
	],
	"accessors":[
		{
			"bufferView":0,
			"componentType":5126,
			"count":176,
			"max":[
				1.0028071403503418,
				3.895150661468506,
				0.7341721653938293
			],
			"min":[
				-1.0028071403503418,
				-3.90254807472229,
				-6.5262603759765625
			],
			"type":"VEC3"
		},
		{
			"bufferView":1,
			"componentType":5126,
			"count":176,
			"type":"VEC2"
		},
		{
			"bufferView":2,
			"componentType":5126,
			"count":176,
			"type":"VEC3"
		},
		{
			"bufferView":3,
			"componentType":5123,
			"count":504,
			"type":"SCALAR"
		},
		{
			"bufferView":4,
			"componentType":5126,
			"count":6846,
			"max":[
				1.3008034229278564,
				2.0756592750549316,
				1.864666223526001
			],
			"min":[
				-1.3008038997650146,
				-2.0756587982177734,
				-1.8646659851074219
			],
			"type":"VEC3"
		},
		{
			"bufferView":5,
			"componentType":5126,
			"count":6846,
			"type":"VEC2"
		},
		{
			"bufferView":6,
			"componentType":5126,
			"count":6846,
			"type":"VEC3"
		},
		{
			"bufferView":7,
			"componentType":5123,
			"count":39168,
			"type":"SCALAR"
		}
	],
	"bufferViews":[
		{
			"buffer":0,
			"byteLength":2112,
			"byteOffset":0,
			"target":34962
		},
		{
			"buffer":0,
			"byteLength":1408,
			"byteOffset":2112,
			"target":34962
		},
		{
			"buffer":0,
			"byteLength":2112,
			"byteOffset":3520,
			"target":34962
		},
		{
			"buffer":0,
			"byteLength":1008,
			"byteOffset":5632,
			"target":34963
		},
		{
			"buffer":0,
			"byteLength":82152,
			"byteOffset":6640,
			"target":34962
		},
		{
			"buffer":0,
			"byteLength":54768,
			"byteOffset":88792,
			"target":34962
		},
		{
			"buffer":0,
			"byteLength":82152,
			"byteOffset":143560,
			"target":34962
		},
		{
			"buffer":0,
			"byteLength":78336,
			"byteOffset":225712,
			"target":34963
		}
	],
	"buffers":[
		{
			"byteLength":304048,
			"uri":"data:application/octet-stream;base64,"
		}
	]
}
