{
	"asset":{
		"generator":"Khronos glTF Blender I/O v3.5.30",
		"version":"2.0"
	},
	"extensionsUsed":[
		"KHR_materials_specular",
		"KHR_materials_ior"
	],
	"scene":0,
	"scenes":[
		{
			"name":"Scene",
			"nodes":[
				0,
				1
			]
		}
	],
	"nodes":[
		{
			"name":"Cylinder.003",
			"rotation":[
				-0.0010628321906551719,
				-0.0010628321906551719,
				-0.7071059942245483,
				0.7071059942245483
			],
			"scale":[
				0.772027850151062,
				0.10154886543750763,
				0.7833658456802368
			],
			"translation":[
				0.0019106863765046,
				0.025984391570091248,
				0.039801448583602905
			]
		},
		{
			"mesh":0,
			"name":"Cylinder.005",
			"rotation":[
				-0.2505930960178375,
				0.24860422313213348,
				-0.6612133383750916,
				0.6619637608528137
			],
			"scale":[
				0.913392186164856,
				0.12014319747686386,
				0.9268057346343994
			],
			"translation":[
				0.0019106863765046,
				0.025984391570091248,
				0.039801448583602905
			]
		}
	],
	"materials":[
		{
			"doubleSided":true,
			"extensions":{
				"KHR_materials_specular":{
					"specularColorFactor":[
						0.3807225210073231,
						0.3807225210073231,
						0.3807225210073231
					]
				},
				"KHR_materials_ior":{
					"ior":1.4500000476837158
				}
			},
			"name":"Material.001",
			"pbrMetallicRoughness":{
				"baseColorFactor":[
					1,
					0.7817593812942505,
					0.8793390393257141,
					1
				],
				"metallicFactor":0.5045871734619141,
				"roughnessFactor":0.4816513657569885
			}
		},
		{
			"doubleSided":true,
			"name":"super gradient ",
			"pbrMetallicRoughness":{
				"metallicFactor":0,
				"roughnessFactor":0.5
			}
		},
		{
			"doubleSided":true,
			"name":"Material.002",
			"pbrMetallicRoughness":{
				"metallicFactor":0,
				"roughnessFactor":0.5
			}
		},
		{
			"doubleSided":true,
			"name":"upper eyes",
			"pbrMetallicRoughness":{
				"metallicFactor":0,
				"roughnessFactor":0.5
			}
		},
		{
			"doubleSided":true,
			"name":"Material",
			"pbrMetallicRoughness":{
				"metallicFactor":0,
				"roughnessFactor":0.5
			}
		}
	],
	"meshes":[
		{
			"name":"Cylinder.006",
			"primitives":[
				{
					"attributes":{
						"POSITION":0,
						"TEXCOORD_0":1,
						"NORMAL":2
					},
					"indices":3,
					"material":0
				},
				{
					"attributes":{
						"POSITION":4,
						"TEXCOORD_0":5,
						"NORMAL":6
					},
					"indices":7,
					"material":1
				},
				{
					"attributes":{
						"POSITION":8,
						"TEXCOORD_0":9,
						"NORMAL":10
					},
					"indices":11,
					"material":2
				},
				{
					"attributes":{
						"POSITION":12,
						"TEXCOORD_0":13,
						"NORMAL":14
					},
					"indices":15,
					"material":3
				},
				{
					"attributes":{
						"POSITION":16,
						"TEXCOORD_0":17,
						"NORMAL":18
					},
					"indices":19,
					"material":4
				}
			]
		}
	],
	"accessors":[
		{
			"bufferView":0,
			"componentType":5126,
			"count":3333,
			"max":[
				1.3008034229278564,
				2.0756592750549316,
				1.8646661043167114
			],
			"min":[
				-1.3008038997650146,
				-2.0756587982177734,
				-1.8646658658981323
			],
			"type":"VEC3"
		},
		{
			"bufferView":1,
			"componentType":5126,
			"count":3333,
			"type":"VEC2"
		},
		{
			"bufferView":2,
			"componentType":5126,
			"count":3333,
			"type":"VEC3"
		},
		{
			"bufferView":3,
			"componentType":5123,
			"count":16698,
			"type":"SCALAR"
		},
		{
			"bufferView":4,
			"componentType":5126,
			"count":3089,
			"max":[
				1.3008034229278564,
				2.0756592750549316,
				1.8596687316894531
			],
			"min":[
				-1.1998971700668335,
				-2.0756587982177734,
				-1.8596687316894531
			],
			"type":"VEC3"
		},
		{
			"bufferView":5,
			"componentType":5126,
			"count":3089,
			"type":"VEC2"
		},
		{
			"bufferView":6,
			"componentType":5126,
			"count":3089,
			"type":"VEC3"
		},
		{
			"bufferView":7,
			"componentType":5123,
			"count":16194,
			"type":"SCALAR"
		},
		{
			"bufferView":8,
			"componentType":5126,
			"count":621,
			"max":[
				0.23738491535186768,
				1.0697052478790283,
				1.5198661088943481
			],
			"min":[
				-1.0155855417251587,
				-1.0697052478790283,
				-1.5198662281036377
			],
			"type":"VEC3"
		},
		{
			"bufferView":9,
			"componentType":5126,
			"count":621,
			"type":"VEC2"
		},
		{
			"bufferView":10,
			"componentType":5126,
			"count":621,
			"type":"VEC3"
		},
		{
			"bufferView":11,
			"componentType":5123,
			"count":3264,
			"type":"SCALAR"
		},
		{
			"bufferView":12,
			"componentType":5126,
			"count":621,
			"max":[
				0.2849749028682709,
				1.1227542161941528,
				1.8646661043167114
			],
			"min":[
				-1.3008038997650146,
				-1.1227542161941528,
				-1.8646658658981323
			],
			"type":"VEC3"
		},
		{
			"bufferView":13,
			"componentType":5126,
			"count":621,
			"type":"VEC2"
		},
		{
			"bufferView":14,
			"componentType":5126,
			"count":621,
			"type":"VEC3"
		},
		{
			"bufferView":15,
			"componentType":5123,
			"count":3264,
			"type":"SCALAR"
		},
		{
			"bufferView":16,
			"componentType":5126,
			"count":100,
			"max":[
				0.7063326835632324,
				1.388991117477417,
				0.6792895197868347
			],
			"min":[
				-0.7023048400878906,
				-1.4148204326629639,
				-0.6822766661643982
			],
			"type":"VEC3"
		},
		{
			"bufferView":17,
			"componentType":5126,
			"count":100,
			"type":"VEC2"
		},
		{
			"bufferView":18,
			"componentType":5126,
			"count":100,
			"type":"VEC3"
		},
		{
			"bufferView":19,
			"componentType":5123,
			"count":252,
			"type":"SCALAR"
		}
	],
	"bufferViews":[
		{
			"buffer":0,
			"byteLength":39996,
			"byteOffset":0,
			"target":34962
		},
		{
			"buffer":0,
			"byteLength":26664,
			"byteOffset":39996,
			"target":34962
		},
		{
			"buffer":0,
			"byteLength":39996,
			"byteOffset":66660,
			"target":34962
		},
		{
			"buffer":0,
			"byteLength":33396,
			"byteOffset":106656,
			"target":34963
		},
		{
			"buffer":0,
			"byteLength":37068,
			"byteOffset":140052,
			"target":34962
		},
		{
			"buffer":0,
			"byteLength":24712,
			"byteOffset":177120,
			"target":34962
		},
		{
			"buffer":0,
			"byteLength":37068,
			"byteOffset":201832,
			"target":34962
		},
		{
			"buffer":0,
			"byteLength":32388,
			"byteOffset":238900,
			"target":34963
		},
		{
			"buffer":0,
			"byteLength":7452,
			"byteOffset":271288,
			"target":34962
		},
		{
			"buffer":0,
			"byteLength":4968,
			"byteOffset":278740,
			"target":34962
		},
		{
			"buffer":0,
			"byteLength":7452,
			"byteOffset":283708,
			"target":34962
		},
		{
			"buffer":0,
			"byteLength":6528,
			"byteOffset":291160,
			"target":34963
		},
		{
			"buffer":0,
			"byteLength":7452,
			"byteOffset":297688,
			"target":34962
		},
		{
			"buffer":0,
			"byteLength":4968,
			"byteOffset":305140,
			"target":34962
		},
		{
			"buffer":0,
			"byteLength":7452,
			"byteOffset":310108,
			"target":34962
		},
		{
			"buffer":0,
			"byteLength":6528,
			"byteOffset":317560,
			"target":34963
		},
		{
			"buffer":0,
			"byteLength":1200,
			"byteOffset":324088,
			"target":34962
		},
		{
			"buffer":0,
			"byteLength":800,
			"byteOffset":325288,
			"target":34962
		},
		{
			"buffer":0,
			"byteLength":1200,
			"byteOffset":326088,
			"target":34962
		},
		{
			"buffer":0,
			"byteLength":504,
			"byteOffset":327288,
			"target":34963
		}
	],
	"buffers":[
		{
			"byteLength":327792,
			"uri":"data:application/octet-stream;base64,"
		}
	]
}
